<svg xmlns="http://www.w3.org/2000/svg" xmlns:xlink="http://www.w3.org/1999/xlink" fill="none" version="1.1" viewBox="0 0 23.9986572265625 35.00159454345703"><g><g><path d="M7.8904905703125,20.91186C6.0115313703125,19.569069,5.5646104703125,16.942362,6.8927855703125,15.042727L12.9875990703125,6.3241515C14.4164900703125,4.2781487,13.9349480703125,1.446202,11.9112110703125,0L0.8231501003125,15.862084C-0.6073135696875,17.908085,-0.1257713396875,20.740032,1.8979648703125,22.186234L8.7009296703125,27.046682L8.8866224703125,26.780989C10.2147980703125,24.881357,9.7678756703125,22.254648,7.8889169703125,20.91186L7.8904905703125,20.91186Z" fill="#3370FF" fill-opacity="1" style="mix-blend-mode:passthrough"/></g><g><path d="M16.10976216015625,14.089733078320313C17.988721360156248,15.432521778320313,18.43564226015625,18.05923127832031,17.10746816015625,19.95886327832031L11.01265442015625,28.677442278320314C9.58219069015625,30.72344427832031,10.06373313015625,33.555391278320315,12.08746966015625,35.00159227832032L23.17553216015625,19.139510278320312C24.605995160156247,17.093505878320315,24.124452160156252,14.261559478320311,22.10071616015625,12.815357678320312L15.297752360156249,7.9549102783203125L15.11206006015625,8.220603878320313C13.78388406015625,10.120235178320312,14.230806360156251,12.746945878320313,16.10976216015625,14.089733078320313Z" fill="#05D4B8" fill-opacity="1" style="mix-blend-mode:passthrough"/></g><g><ellipse cx="11.996189832687378" cy="17.49124550819397" rx="2.330601453781128" ry="2.356243371963501" fill="#133C9A" fill-opacity="1" style="mix-blend-mode:passthrough"/></g></g></svg>